<svg width="43" height="76" viewBox="0 0 43 76" fill="none" xmlns="http://www.w3.org/2000/svg">
<path d="M23.1666 33.4167C13.7083 30.9583 10.6666 28.4167 10.6666 24.4583C10.6666 19.9167 14.8749 16.75 21.9166 16.75C29.3333 16.75 32.0833 20.2917 32.3333 25.5H41.5416C41.2499 18.3333 36.8749 11.75 28.1666 9.625V0.5H15.6666V9.5C7.58325 11.25 1.08325 16.5 1.08325 24.5417C1.08325 34.1667 9.04158 38.9583 20.6666 41.75C31.0832 44.25 33.1666 47.9167 33.1666 51.7917C33.1666 54.6667 31.1249 59.25 21.9166 59.25C13.3333 59.25 9.95825 55.4167 9.49992 50.5H0.333252C0.833252 59.625 7.66658 64.75 15.6666 66.4583V75.5H28.1666V66.5417C36.2916 65 42.7499 60.2917 42.7499 51.75C42.7499 39.9167 32.6249 35.875 23.1666 33.4167Z" fill="#59A337"/>
</svg>
