<svg width="75" height="84" viewBox="0 0 75 84" fill="none" xmlns="http://www.w3.org/2000/svg">
<path d="M66.6667 8.33333H49.25C47.5 3.5 42.9167 0 37.5 0C32.0833 0 27.5 3.5 25.75 8.33333H8.33333C3.75 8.33333 0 12.0833 0 16.6667V75C0 79.5833 3.75 83.3333 8.33333 83.3333H66.6667C71.25 83.3333 75 79.5833 75 75V16.6667C75 12.0833 71.25 8.33333 66.6667 8.33333ZM37.5 8.33333C39.7917 8.33333 41.6667 10.2083 41.6667 12.5C41.6667 14.7917 39.7917 16.6667 37.5 16.6667C35.2083 16.6667 33.3333 14.7917 33.3333 12.5C33.3333 10.2083 35.2083 8.33333 37.5 8.33333ZM37.5 25C44.4167 25 50 30.5833 50 37.5C50 44.4167 44.4167 50 37.5 50C30.5833 50 25 44.4167 25 37.5C25 30.5833 30.5833 25 37.5 25ZM62.5 75H12.5V69.1667C12.5 60.8333 29.1667 56.25 37.5 56.25C45.8333 56.25 62.5 60.8333 62.5 69.1667V75Z" fill="#59A337"/>
</svg>
