<svg width="86" height="83" viewBox="0 0 86 83" fill="none" xmlns="http://www.w3.org/2000/svg">
<path d="M79.8256 42.7576L86 49.8503L57.201 83L41.8974 65.3939L48.0718 58.3012L57.201 68.7642L79.8256 42.7576ZM35.2821 0C39.9607 0 44.4478 2.11991 47.7561 5.89337C51.0645 9.66682 52.9231 14.7847 52.9231 20.1212C52.9231 25.4577 51.0645 30.5756 47.7561 34.3491C44.4478 38.1225 39.9607 40.2424 35.2821 40.2424C30.6034 40.2424 26.1163 38.1225 22.808 34.3491C19.4996 30.5756 17.641 25.4577 17.641 20.1212C17.641 14.7847 19.4996 9.66682 22.808 5.89337C26.1163 2.11991 30.6034 0 35.2821 0ZM35.2821 10.0606C32.9427 10.0606 30.6992 11.1206 29.045 13.0073C27.3908 14.894 26.4615 17.453 26.4615 20.1212C26.4615 22.7895 27.3908 25.3484 29.045 27.2351C30.6992 29.1219 32.9427 30.1818 35.2821 30.1818C37.6214 30.1818 39.8649 29.1219 41.5191 27.2351C43.1733 25.3484 44.1026 22.7895 44.1026 20.1212C44.1026 17.453 43.1733 14.894 41.5191 13.0073C39.8649 11.1206 37.6214 10.0606 35.2821 10.0606ZM35.2821 45.2727C38.281 45.2727 41.8974 45.7255 45.9108 46.5806L38.5456 54.9812L35.2821 54.8303C22.1836 54.8303 8.37949 62.1745 8.37949 65.3939V70.9273H35.7231L44.1026 80.4848H0V65.3939C0 52.0133 23.5067 45.2727 35.2821 45.2727Z" fill="#59A337"/>
</svg>
