<svg width="98" height="94" viewBox="0 0 98 94" fill="none" xmlns="http://www.w3.org/2000/svg">
<path d="M95.9677 46.2454L54.1996 3.84809L51.3999 1.00477C50.762 0.361198 49.8994 0 49.0002 0C48.101 0 47.2384 0.361198 46.6005 1.00477L2.03265 46.2454C1.379 46.9066 0.862419 47.6942 0.513385 48.5615C0.164351 49.4288 -0.0100597 50.3584 0.000448053 51.2953C0.0436863 55.1596 3.21089 58.2444 7.01585 58.2444H11.6099V94H86.3905V58.2444H91.0818C92.9303 58.2444 94.6706 57.5089 95.9785 56.1805C96.6226 55.5286 97.1329 54.7533 97.4798 53.8997C97.8268 53.0461 98.0036 52.131 97.9999 51.2075C97.9999 49.3412 97.2757 47.5737 95.9677 46.2454ZM55.0535 86.0958H42.9468V63.7005H55.0535V86.0958ZM78.6076 50.3402V86.0958H61.9717V61.0658C61.9717 58.6396 60.0368 56.6746 57.6478 56.6746H40.3525C37.9636 56.6746 36.0287 58.6396 36.0287 61.0658V86.0958H19.3928V50.3402H9.01562L49.011 9.75429L51.508 12.2902L88.9956 50.3402H78.6076Z" fill="#59A337"/>
</svg>
